# xmcd
#
# Track frame offsets:
# 150
# 24541
# 48990
# 70040
# 86721
# 109544
# 132695
# 152725
# 177060
# 207386
# 236681
# 267023
# 281079
# 306971
# 330144
#
# Disc length: 4560 seconds
#
#
# Revision: 0
# Processed by: cddbd v1.5.2PL0 Copyright (c) Steve Scherf et al.
# Submitted via: FreeRIP 2.96 
#
DISCID=cd11ce0f
DTITLE=Wolfgang Hohlbein - Nemesis - Alptraumzeit CD1
DYEAR=2007
DGENRE=Speech
TTITLE0=01 Alptraumzeit
TTITLE1=02 Alptraumzeit
TTITLE2=03 Alptraumzeit
TTITLE3=04 Alptraumzeit
TTITLE4=05 Alptraumzeit
TTITLE5=06 Alptraumzeit
TTITLE6=07 Alptraumzeit
TTITLE7=08 Alptraumzeit
TTITLE8=09 Alptraumzeit
TTITLE9=10 Alptraumzeit
TTITLE10=11 Alptraumzeit
TTITLE11=12 Alptraumzeit
TTITLE12=13 Alptraumzeit
TTITLE13=14 Alptraumzeit
TTITLE14=15 Alptraumzeit
EXTD=gelesen von Johannes Steck
EXTT0=
EXTT1=
EXTT2=
EXTT3=
EXTT4=
EXTT5=
EXTT6=
EXTT7=
EXTT8=
EXTT9=
EXTT10=
EXTT11=
EXTT12=
EXTT13=
EXTT14=
PLAYORDER=
